<svg xmlns="http://www.w3.org/2000/svg" width="500" height="500">
  <path data-name="3x3" d="M496.586 0 0 .088.056 499.9l499.964.11V0h-3.434Zm-3.435 164.468h-157.5V6.9l157.5-.027v157.6ZM171.29 328.852V171.336h157.5v157.516h-157.5Zm157.5 6.867v157.387l-157.5-.034V335.719h157.5Zm-164.365-6.867H6.9c0-50.789-.01-106.714-.016-157.516h157.537v157.516Zm6.869-164.383V6.925l157.5-.03v157.574H171.29Zm164.365 6.867h157.5v157.516h-157.5V171.336ZM164.421 6.925v157.544H6.888C6.874 78.888 6.868 9.5 6.868 6.955ZM6.908 335.719h157.513v157.35c-85.577-.017-154.95-.034-157.5-.034.004-2.541-.006-71.825-.013-157.316Zm328.747 157.39v-157.39h157.5v157.424c-2.549 0-71.923-.017-157.5-.034Z" style="fill-rule:evenodd"/>
</svg>
