<svg xmlns="http://www.w3.org/2000/svg" width="500" height="500">
  <path d="M250.02 499.991C112.161 499.991.009 387.845.009 250S112.161.009 250.02.009c137.831 0 249.971 112.145 249.971 249.99S387.851 499.991 250.02 499.991Zm0-465.891C130.967 34.1 34.1 130.951 34.1 250s96.867 215.9 215.92 215.9c119.034 0 215.88-96.851 215.88-215.9S369.054 34.1 250.02 34.1Zm11.833 226.436-89.61 98.164s-11.285 10.719-21.812 1.113-1.124-22.045-1.124-22.045l85.338-93.493V65.017s1.114-15.735 15.366-15.674S265.7 65.017 265.7 65.017v182.708c.645 6.859-3.847 12.811-3.847 12.811Z" style="fill:#6878b3;fill-rule:evenodd"/>
</svg>
